<svg xmlns="http://www.w3.org/2000/svg" width="1024" height="1024" viewBox="0 0 1024 1024">
  <defs>
    <linearGradient id="bg" x1="0" y1="0" x2="0.15" y2="1">
      <stop offset="0" stop-color="#2A221C"/>
      <stop offset="1" stop-color="#080706"/>
    </linearGradient>
    <radialGradient id="vignette" cx="48%" cy="38%" r="72%">
      <stop offset="0" stop-color="#FFFFFF" stop-opacity="0.07"/>
      <stop offset="0.55" stop-color="#FFFFFF" stop-opacity="0"/>
      <stop offset="1" stop-color="#000000" stop-opacity="0.55"/>
    </radialGradient>
    <linearGradient id="ink" x1="0.22" y1="0" x2="0.78" y2="1">
      <stop offset="0" stop-color="#FF6A42"/>
      <stop offset="0.45" stop-color="#E44528"/>
      <stop offset="1" stop-color="#B32A18"/>
    </linearGradient>
    <radialGradient id="pad" cx="42%" cy="32%" r="70%">
      <stop offset="0" stop-color="#3A2A24"/>
      <stop offset="1" stop-color="#120E0C"/>
    </radialGradient>
    <clipPath id="iconClip">
      <rect width="1024" height="1024" rx="229" ry="229"/>
    </clipPath>
  </defs>

  <g clip-path="url(#iconClip)">
    <rect width="1024" height="1024" fill="url(#bg)"/>
    <rect width="1024" height="1024" fill="url(#vignette)"/>

    <circle cx="730" cy="250" r="86" fill="#F6D7B0" opacity="0.16"/>
    <g fill="#F3E6D8">
      <path d="M 0 780 L 180 520 L 340 640 L 512 360 L 690 580 L 860 430 L 1024 700 L 1024 1024 L 0 1024 Z" opacity="0.10"/>
      <path d="M 0 860 L 220 640 L 400 760 L 560 560 L 760 720 L 1024 620 L 1024 1024 L 0 1024 Z" opacity="0.07"/>
      <path d="M 0 940 L 280 820 L 520 900 L 780 780 L 1024 860 L 1024 1024 L 0 1024 Z" opacity="0.05"/>
    </g>

    <g transform="translate(526 528)">
      <circle r="340" fill="#000000" opacity="0.38"/>
    </g>

    <g transform="translate(512 508) rotate(-7)">
      <circle r="268" fill="url(#pad)"/>
      <circle r="292" fill="none" stroke="#E44528" stroke-width="52" opacity="0.22"/>
      <circle r="318" fill="none" stroke="url(#ink)" stroke-width="22"/>
      <circle r="266" fill="none" stroke="url(#ink)" stroke-width="11"/>
      <path d="M -220 -220 A 318 318 0 0 1 220 -220" fill="none" stroke="#FFFFFF" stroke-width="6" stroke-linecap="round" opacity="0.22"/>

      <text x="-291.26" y="-20.83" transform="rotate(-85.91 -291.26 -20.83)" font-family="Menlo, ui-monospace, monospace" font-size="40" font-weight="700" fill="#F3E6D8" text-anchor="middle" dominant-baseline="middle">E</text>
      <text x="-285.33" y="-62.07" transform="rotate(-77.73 -285.33 -62.07)" font-family="Menlo, ui-monospace, monospace" font-size="40" font-weight="700" fill="#F3E6D8" text-anchor="middle" dominant-baseline="middle">X</text>
      <text x="-273.59" y="-102.04" transform="rotate(-69.55 -273.59 -102.04)" font-family="Menlo, ui-monospace, monospace" font-size="40" font-weight="700" fill="#F3E6D8" text-anchor="middle" dominant-baseline="middle">I</text>
      <text x="-256.28" y="-139.94" transform="rotate(-61.36 -256.28 -139.94)" font-family="Menlo, ui-monospace, monospace" font-size="40" font-weight="700" fill="#F3E6D8" text-anchor="middle" dominant-baseline="middle">F</text>
      <text x="-233.76" y="-174.99" transform="rotate(-53.18 -233.76 -174.99)" font-family="Menlo, ui-monospace, monospace" font-size="40" font-weight="700" fill="#F3E6D8" text-anchor="middle" dominant-baseline="middle">·</text>
      <text x="-206.48" y="-206.48" transform="rotate(-45.00 -206.48 -206.48)" font-family="Menlo, ui-monospace, monospace" font-size="40" font-weight="700" fill="#F3E6D8" text-anchor="middle" dominant-baseline="middle">S</text>
      <text x="-174.99" y="-233.76" transform="rotate(-36.82 -174.99 -233.76)" font-family="Menlo, ui-monospace, monospace" font-size="40" font-weight="700" fill="#F3E6D8" text-anchor="middle" dominant-baseline="middle">T</text>
      <text x="-139.94" y="-256.28" transform="rotate(-28.64 -139.94 -256.28)" font-family="Menlo, ui-monospace, monospace" font-size="40" font-weight="700" fill="#F3E6D8" text-anchor="middle" dominant-baseline="middle">A</text>
      <text x="-102.04" y="-273.59" transform="rotate(-20.45 -102.04 -273.59)" font-family="Menlo, ui-monospace, monospace" font-size="40" font-weight="700" fill="#F3E6D8" text-anchor="middle" dominant-baseline="middle">M</text>
      <text x="-62.07" y="-285.33" transform="rotate(-12.27 -62.07 -285.33)" font-family="Menlo, ui-monospace, monospace" font-size="40" font-weight="700" fill="#F3E6D8" text-anchor="middle" dominant-baseline="middle">P</text>
      <text x="-20.83" y="-291.26" transform="rotate(-4.09 -20.83 -291.26)" font-family="Menlo, ui-monospace, monospace" font-size="40" font-weight="700" fill="#F3E6D8" text-anchor="middle" dominant-baseline="middle">·</text>
      <text x="20.83" y="-291.26" transform="rotate(4.09 20.83 -291.26)" font-family="Menlo, ui-monospace, monospace" font-size="40" font-weight="700" fill="#F3E6D8" text-anchor="middle" dominant-baseline="middle">E</text>
      <text x="62.07" y="-285.33" transform="rotate(12.27 62.07 -285.33)" font-family="Menlo, ui-monospace, monospace" font-size="40" font-weight="700" fill="#F3E6D8" text-anchor="middle" dominant-baseline="middle">X</text>
      <text x="102.04" y="-273.59" transform="rotate(20.45 102.04 -273.59)" font-family="Menlo, ui-monospace, monospace" font-size="40" font-weight="700" fill="#F3E6D8" text-anchor="middle" dominant-baseline="middle">I</text>
      <text x="139.94" y="-256.28" transform="rotate(28.64 139.94 -256.28)" font-family="Menlo, ui-monospace, monospace" font-size="40" font-weight="700" fill="#F3E6D8" text-anchor="middle" dominant-baseline="middle">F</text>
      <text x="174.99" y="-233.76" transform="rotate(36.82 174.99 -233.76)" font-family="Menlo, ui-monospace, monospace" font-size="40" font-weight="700" fill="#F3E6D8" text-anchor="middle" dominant-baseline="middle">·</text>
      <text x="206.48" y="-206.48" transform="rotate(45.00 206.48 -206.48)" font-family="Menlo, ui-monospace, monospace" font-size="40" font-weight="700" fill="#F3E6D8" text-anchor="middle" dominant-baseline="middle">S</text>
      <text x="233.76" y="-174.99" transform="rotate(53.18 233.76 -174.99)" font-family="Menlo, ui-monospace, monospace" font-size="40" font-weight="700" fill="#F3E6D8" text-anchor="middle" dominant-baseline="middle">T</text>
      <text x="256.28" y="-139.94" transform="rotate(61.36 256.28 -139.94)" font-family="Menlo, ui-monospace, monospace" font-size="40" font-weight="700" fill="#F3E6D8" text-anchor="middle" dominant-baseline="middle">A</text>
      <text x="273.59" y="-102.04" transform="rotate(69.55 273.59 -102.04)" font-family="Menlo, ui-monospace, monospace" font-size="40" font-weight="700" fill="#F3E6D8" text-anchor="middle" dominant-baseline="middle">M</text>
      <text x="285.33" y="-62.07" transform="rotate(77.73 285.33 -62.07)" font-family="Menlo, ui-monospace, monospace" font-size="40" font-weight="700" fill="#F3E6D8" text-anchor="middle" dominant-baseline="middle">P</text>
      <text x="291.26" y="-20.83" transform="rotate(85.91 291.26 -20.83)" font-family="Menlo, ui-monospace, monospace" font-size="40" font-weight="700" fill="#F3E6D8" text-anchor="middle" dominant-baseline="middle">·</text>
      <text x="291.26" y="20.83" transform="rotate(94.09 291.26 20.83)" font-family="Menlo, ui-monospace, monospace" font-size="40" font-weight="700" fill="#F3E6D8" text-anchor="middle" dominant-baseline="middle">E</text>
      <text x="285.33" y="62.07" transform="rotate(102.27 285.33 62.07)" font-family="Menlo, ui-monospace, monospace" font-size="40" font-weight="700" fill="#F3E6D8" text-anchor="middle" dominant-baseline="middle">X</text>
      <text x="273.59" y="102.04" transform="rotate(110.45 273.59 102.04)" font-family="Menlo, ui-monospace, monospace" font-size="40" font-weight="700" fill="#F3E6D8" text-anchor="middle" dominant-baseline="middle">I</text>
      <text x="256.28" y="139.94" transform="rotate(118.64 256.28 139.94)" font-family="Menlo, ui-monospace, monospace" font-size="40" font-weight="700" fill="#F3E6D8" text-anchor="middle" dominant-baseline="middle">F</text>
      <text x="233.76" y="174.99" transform="rotate(126.82 233.76 174.99)" font-family="Menlo, ui-monospace, monospace" font-size="40" font-weight="700" fill="#F3E6D8" text-anchor="middle" dominant-baseline="middle">·</text>
      <text x="206.48" y="206.48" transform="rotate(135.00 206.48 206.48)" font-family="Menlo, ui-monospace, monospace" font-size="40" font-weight="700" fill="#F3E6D8" text-anchor="middle" dominant-baseline="middle">S</text>
      <text x="174.99" y="233.76" transform="rotate(143.18 174.99 233.76)" font-family="Menlo, ui-monospace, monospace" font-size="40" font-weight="700" fill="#F3E6D8" text-anchor="middle" dominant-baseline="middle">T</text>
      <text x="139.94" y="256.28" transform="rotate(151.36 139.94 256.28)" font-family="Menlo, ui-monospace, monospace" font-size="40" font-weight="700" fill="#F3E6D8" text-anchor="middle" dominant-baseline="middle">A</text>
      <text x="102.04" y="273.59" transform="rotate(159.55 102.04 273.59)" font-family="Menlo, ui-monospace, monospace" font-size="40" font-weight="700" fill="#F3E6D8" text-anchor="middle" dominant-baseline="middle">M</text>
      <text x="62.07" y="285.33" transform="rotate(167.73 62.07 285.33)" font-family="Menlo, ui-monospace, monospace" font-size="40" font-weight="700" fill="#F3E6D8" text-anchor="middle" dominant-baseline="middle">P</text>
      <text x="20.83" y="291.26" transform="rotate(175.91 20.83 291.26)" font-family="Menlo, ui-monospace, monospace" font-size="40" font-weight="700" fill="#F3E6D8" text-anchor="middle" dominant-baseline="middle">·</text>
      <text x="-20.83" y="291.26" transform="rotate(-175.91 -20.83 291.26)" font-family="Menlo, ui-monospace, monospace" font-size="40" font-weight="700" fill="#F3E6D8" text-anchor="middle" dominant-baseline="middle">E</text>
      <text x="-62.07" y="285.33" transform="rotate(-167.73 -62.07 285.33)" font-family="Menlo, ui-monospace, monospace" font-size="40" font-weight="700" fill="#F3E6D8" text-anchor="middle" dominant-baseline="middle">X</text>
      <text x="-102.04" y="273.59" transform="rotate(-159.55 -102.04 273.59)" font-family="Menlo, ui-monospace, monospace" font-size="40" font-weight="700" fill="#F3E6D8" text-anchor="middle" dominant-baseline="middle">I</text>
      <text x="-139.94" y="256.28" transform="rotate(-151.36 -139.94 256.28)" font-family="Menlo, ui-monospace, monospace" font-size="40" font-weight="700" fill="#F3E6D8" text-anchor="middle" dominant-baseline="middle">F</text>
      <text x="-174.99" y="233.76" transform="rotate(-143.18 -174.99 233.76)" font-family="Menlo, ui-monospace, monospace" font-size="40" font-weight="700" fill="#F3E6D8" text-anchor="middle" dominant-baseline="middle">·</text>
      <text x="-206.48" y="206.48" transform="rotate(-135.00 -206.48 206.48)" font-family="Menlo, ui-monospace, monospace" font-size="40" font-weight="700" fill="#F3E6D8" text-anchor="middle" dominant-baseline="middle">S</text>
      <text x="-233.76" y="174.99" transform="rotate(-126.82 -233.76 174.99)" font-family="Menlo, ui-monospace, monospace" font-size="40" font-weight="700" fill="#F3E6D8" text-anchor="middle" dominant-baseline="middle">T</text>
      <text x="-256.28" y="139.94" transform="rotate(-118.64 -256.28 139.94)" font-family="Menlo, ui-monospace, monospace" font-size="40" font-weight="700" fill="#F3E6D8" text-anchor="middle" dominant-baseline="middle">A</text>
      <text x="-273.59" y="102.04" transform="rotate(-110.45 -273.59 102.04)" font-family="Menlo, ui-monospace, monospace" font-size="40" font-weight="700" fill="#F3E6D8" text-anchor="middle" dominant-baseline="middle">M</text>
      <text x="-285.33" y="62.07" transform="rotate(-102.27 -285.33 62.07)" font-family="Menlo, ui-monospace, monospace" font-size="40" font-weight="700" fill="#F3E6D8" text-anchor="middle" dominant-baseline="middle">P</text>
      <text x="-291.26" y="20.83" transform="rotate(-94.09 -291.26 20.83)" font-family="Menlo, ui-monospace, monospace" font-size="40" font-weight="700" fill="#F3E6D8" text-anchor="middle" dominant-baseline="middle">·</text>

      <text x="0" y="-28" font-family="Menlo, ui-monospace, monospace" font-size="108" font-weight="800" fill="#F3E6D8" text-anchor="middle" dominant-baseline="middle" letter-spacing="10">EXIF</text>
      <line x1="-148" y1="42" x2="148" y2="42" stroke="#E44528" stroke-width="8" stroke-linecap="round"/>
      <text x="0" y="108" font-family="Menlo, ui-monospace, monospace" font-size="62" font-weight="700" fill="#F3E6D8" text-anchor="middle" dominant-baseline="middle" letter-spacing="6">12 JUN</text>
    </g>
  </g>
</svg>
